<svg width="219" height="219" viewBox="0 0 219 219" fill="none" xmlns="http://www.w3.org/2000/svg">
<g clip-path="url(#clip0_26_57)">
<mask id="mask0_26_57" style="mask-type:luminance" maskUnits="userSpaceOnUse" x="0" y="0" width="219" height="219">
<path d="M219 0.167969H0V218.831H219V0.167969Z" fill="white"/>
</mask>
<g mask="url(#mask0_26_57)">
<path d="M108.397 218.999C108.209 218.943 108.1 218.843 107.986 218.838C106.455 218.772 104.923 218.734 103.393 218.658C101.452 218.562 99.51 218.467 97.5738 218.308C96.9073 218.254 96.2843 217.977 96.191 217.151C96.0723 216.099 96.3133 215.72 97.4155 215.35C97.279 214.197 97.1592 213.021 96.9963 211.851C96.8035 210.466 96.5594 209.088 96.3644 207.703C96.2262 206.722 96.1631 205.73 96.0092 204.752C95.8961 204.033 95.3923 203.889 94.6925 203.798C93.0396 203.584 93.0479 203.516 92.3599 204.904C91.0465 207.554 89.7393 210.206 88.4155 212.851C88.1622 213.357 87.8603 213.733 88.5485 214.24C88.9605 214.543 89.0956 215.277 88.6775 215.788C88.2962 216.254 87.91 216.723 87.1055 216.496C83.6988 215.535 80.2709 214.648 76.8586 213.706C76.1889 213.521 75.4863 213.307 74.9285 212.92C74.5972 212.69 74.2749 212.012 74.3869 211.685C74.539 211.242 75.1001 210.93 75.5053 210.584C75.8181 210.318 76.2843 210.156 76.4714 209.828C78.5138 206.243 80.5104 202.632 82.528 199.033C84.7718 195.03 87.0384 191.041 89.2475 187.019C89.4313 186.684 89.3037 186.142 89.2306 185.712C89.1223 185.073 88.8548 184.455 88.7983 183.816C88.7248 182.986 89.1338 182.554 89.9853 182.631C91.2664 182.747 92.5372 182.985 93.8091 183.192C95.6746 183.494 97.5362 183.82 99.4012 184.126C101.213 184.423 103.036 184.663 104.839 185.01C106.151 185.263 106.483 186.08 105.798 187.24C105.526 187.702 105.107 188.075 104.792 188.514C104.634 188.734 104.426 189.038 104.468 189.262C104.911 191.653 105.409 194.033 105.873 196.419C106.363 198.942 106.824 201.471 107.313 203.995C107.635 205.658 107.986 207.315 108.32 208.976C108.771 211.226 109.215 213.477 109.674 215.725C109.706 215.883 109.801 216.07 109.927 216.159C111.332 217.153 111.391 217.687 110.188 218.942C109.607 218.999 109.041 218.999 108.397 218.999ZM96.4075 198.615C97.0479 198.787 97.5128 198.894 97.2301 197.884C96.9819 196.998 96.9935 196.041 96.8532 195.121C96.7241 194.275 96.5455 193.436 96.3888 192.593C96.317 192.574 96.2452 192.555 96.1734 192.536C95.1943 194.332 94.2152 196.128 93.1673 198.05C94.3042 198.258 95.284 198.436 96.4075 198.615Z" fill="white"/>
<path d="M105.891 0.335938C106.363 0.596289 106.804 0.811497 107.154 1.12672C107.812 1.71799 107.924 2.43216 107.301 3.0766C106.558 3.84566 105.652 4.45731 104.727 5.20943C104.795 6.26931 104.855 7.50619 104.956 8.73967C105.166 11.3012 105.406 13.8602 105.618 16.4217C105.7 17.4175 105.734 18.4172 105.795 19.4148C105.906 21.2142 105.997 23.0153 106.139 24.8122C106.295 26.7681 106.499 28.72 106.688 30.7333C107.653 31.1492 108.691 31.5645 109.043 32.7913C109.314 33.7353 108.737 34.7622 107.777 34.8631C105.939 35.0564 104.098 35.2339 102.254 35.3697C99.6273 35.5632 96.9959 35.6972 94.3686 35.8879C92.8182 36.0005 92.1315 35.6841 91.8495 34.6251C91.6543 33.8923 92.1061 32.7221 93.0526 32.2632C94.0193 31.7945 93.8672 31.0705 93.8142 30.3323C93.7493 29.4278 93.5741 28.5315 93.5025 27.6272C93.2622 24.5912 93.0557 21.5526 92.8184 18.5163C92.6677 16.5878 92.4835 14.6619 92.3176 12.7345C92.1469 10.7515 91.976 8.76839 91.8143 6.78457C91.7713 6.25735 91.5621 5.91015 91.0256 5.72694C90.4348 5.52518 89.8484 5.27933 89.3074 4.96995C88.4584 4.48439 88.1044 3.73527 88.287 3.01134C88.4604 2.32419 89.5067 1.55299 90.3001 1.51402C92.5206 1.40495 94.7436 1.32965 96.9602 1.16759C99.6064 0.974119 102.247 0.704447 104.921 0.401861C105.241 0.335938 105.53 0.335938 105.891 0.335938Z" fill="white"/>
<path d="M219.168 117.506C219.112 117.781 219.022 117.973 219.005 118.172C218.774 120.872 218.557 123.574 218.328 126.275C218.004 130.079 217.217 133.803 216.294 137.498C215.952 138.871 215.53 140.225 215.09 141.57C214.782 142.511 213.69 142.969 212.779 142.612C212.061 142.33 211.419 141.282 211.703 140.399C212.849 136.837 213.808 133.219 214.278 129.495C214.644 126.599 215.092 123.705 215.262 120.796C215.502 116.702 215.602 112.595 215.6 108.493C215.598 105.976 215.385 103.448 215.105 100.943C214.538 95.848 213.763 90.7892 212.641 85.7732C211.222 79.4205 209.295 73.2393 206.78 67.2532C204.758 62.4388 202.424 57.7633 199.535 53.3906C198.555 51.9087 197.583 50.4221 196.601 48.9426C196.006 48.0478 196.167 46.9115 196.979 46.3736C197.734 45.8731 199.085 46.1104 199.582 46.9016C201.615 50.1392 203.724 53.3349 205.612 56.656C208.408 61.5754 210.612 66.7697 212.459 72.1266C214.106 76.9025 215.529 81.7301 216.471 86.693C217.062 89.812 217.647 92.9343 218.131 96.071C218.413 97.8967 218.516 99.752 218.657 101.597C218.809 103.59 218.911 105.587 219.102 107.614C219.168 110.906 219.168 114.167 219.168 117.506Z" fill="white"/>
<path d="M0.168945 111.094C0.224772 110.904 0.325645 110.794 0.3297 110.681C0.395674 108.841 0.39488 106.997 0.519141 105.161C0.688928 102.652 0.8958 100.143 1.1896 97.6464C1.52008 94.838 1.84645 92.0198 2.39055 89.2482C3.0468 85.9053 3.88572 82.5956 4.7256 79.292C5.92897 74.5586 7.5586 69.956 9.48855 65.4799C10.9478 62.0954 12.5704 58.7635 14.3736 55.5503C16.0556 52.5532 18.0502 49.7294 19.9538 46.8602C20.5209 46.0054 21.6783 45.8907 22.4582 46.4452C23.3025 47.0455 23.4258 48.176 22.8059 49.0186C19.3205 53.7566 16.4696 58.8657 13.9996 64.1828C10.9838 70.6746 8.68176 77.4274 7.08859 84.4084C6.39568 87.4446 5.75931 90.499 5.25316 93.5709C4.84158 96.0688 4.59109 98.5995 4.39834 101.126C4.15525 104.312 3.98993 107.506 3.89161 110.699C3.81033 113.339 3.74563 115.992 3.90915 118.624C4.09863 121.674 4.54243 124.709 4.88153 127.749C5.3589 132.029 6.44445 136.176 7.64419 140.298C7.96718 141.407 7.56601 142.349 6.68475 142.648C5.70853 142.98 4.53603 142.445 4.24809 141.388C3.51804 138.707 2.80436 136.017 2.21084 133.304C1.71982 131.059 1.37415 128.78 1.03346 126.505C0.841302 125.222 0.752878 123.921 0.68191 122.624C0.532836 119.9 0.426122 117.173 0.235482 114.416C0.168944 113.314 0.168944 112.244 0.168945 111.094Z" fill="white"/>
<path d="M75.5133 62.5391C78.6452 60.5448 82.0102 59.2141 85.5928 58.6855C88.2496 58.2935 90.9919 58.1908 93.6752 58.3392C97.244 58.5366 100.665 59.5983 103.862 61.2099C106.392 62.4855 108.749 64.0662 110.771 66.075C111.232 66.5333 111.576 66.2415 111.965 66.1653C113.198 65.9237 114.377 65.8299 115.334 66.8908C116.095 67.7349 115.9 68.7298 115.865 69.7295C119.488 71.4114 122.652 73.7893 125.335 76.7699C126.618 78.195 127.715 79.79 128.855 81.3383C129.155 81.7453 129.367 81.9502 129.924 81.778C135.075 80.1853 140.235 78.6232 145.395 77.0592C146.679 76.6698 147.8 76.9052 148.759 77.9094C152.869 82.2143 155.952 87.1516 158.025 92.7325C159.001 95.3581 159.762 98.0538 159.989 100.826C160.205 103.479 160.214 106.178 159.987 108.829C159.783 111.212 159.179 113.566 158.668 115.916C158.325 117.497 157.243 118.27 155.628 118.448C154.436 118.579 153.263 118.884 152.084 119.125C151.941 119.154 151.815 119.268 151.635 119.369C153.976 120.301 156.275 121.218 158.576 122.131C159.715 122.582 160.911 122.925 161.985 123.497C163.372 124.234 164.798 124.069 166.237 123.97C167.086 123.912 167.926 123.728 168.775 123.656C171.588 123.415 174.404 123.207 177.217 122.973C179.09 122.817 180.963 122.654 182.833 122.466C184.258 122.322 185.675 122.091 187.102 121.978C188.911 121.834 190.623 122.844 190.23 125.458C189.809 128.254 188.423 130.455 186.359 132.261C184.748 133.672 182.829 134.561 180.72 134.917C179.197 135.174 177.643 135.252 176.03 135.417C176.371 136.49 176.803 137.607 177.065 138.763C177.217 139.433 177.252 140.211 177.062 140.859C176.765 141.872 175.531 142.381 174.359 141.896C172.554 141.148 170.754 140.333 169.084 139.326C166.254 137.619 163.527 135.741 160.759 133.931C160.553 133.796 160.345 133.652 160.175 133.476C159.118 132.386 157.912 132.924 156.725 133.13C155.402 133.359 154.076 133.573 152.744 133.746C152.245 133.81 152.034 133.864 152.277 134.448C153.016 136.222 153.364 138.092 153.669 139.991C154.045 142.333 154.495 144.684 155.186 146.948C156.29 150.564 157.621 154.111 158.853 157.688C159.239 158.81 160.121 159.351 161.174 159.704C165.178 161.047 169.181 162.388 173.182 163.741C174.032 164.029 174.879 164.334 175.708 164.679C176.678 165.082 177.022 166.18 176.614 167.469C176.07 169.188 174.984 170.496 173.547 171.554C171.732 172.889 169.839 174.066 167.62 174.604C167.22 174.701 166.794 174.694 166.308 174.742C167.034 175.771 167.753 176.79 168.543 177.908C169.486 177.187 170.451 176.494 171.363 175.739C172.396 174.883 173.503 174.338 174.835 174.878C176.313 175.477 177.215 176.649 177.532 178.18C177.72 179.085 177.09 179.72 176.405 180.251C175.101 181.261 173.806 182.282 172.413 183.372C173.329 184.679 174.212 185.938 175.125 187.241C176.917 185.765 178.636 184.347 180.358 182.932C180.569 182.758 180.786 182.587 181.017 182.441C181.85 181.913 182.238 181.16 182.469 180.192C183.065 177.698 185.373 177.612 186.841 178.586C187.168 178.804 187.471 179.157 187.629 179.517C188.395 181.265 188.918 183.107 188.46 184.998C188.27 185.786 187.647 186.543 187.05 187.145C185.68 188.527 184.24 189.845 182.766 191.117C180.405 193.154 178.005 195.146 175.599 197.131C174.263 198.234 172.886 199.288 171.521 200.356C170.418 201.218 167.578 201.045 166.941 199.045C166.671 198.198 166.512 197.39 166.706 196.472C166.787 196.088 166.335 195.551 166.049 195.136C164.229 192.501 162.381 189.885 160.555 187.254C157.015 182.15 153.438 177.07 149.973 171.916C148.696 170.017 147.664 167.949 146.571 165.931C145.884 164.663 146.393 163.373 146.613 162.079C146.829 160.812 147.094 159.497 146.968 158.24C146.805 156.599 145.64 155.453 144.321 154.53C142.656 153.364 141.707 151.649 140.855 149.898C139.679 147.483 138.988 144.89 138.532 142.254C138.232 140.519 138.099 138.748 137.987 136.988C137.902 135.65 137.306 135.001 136.021 135.119C135.877 135.132 135.724 135.254 135.61 135.363C131.605 139.177 127.021 142.174 122.238 144.899C118.95 146.773 115.565 148.444 111.868 149.291C110.215 149.67 108.459 149.763 106.756 149.721C104.791 149.672 103.668 148.198 102.586 146.748C101.713 145.58 100.756 144.474 99.8488 143.356C97.2623 144.683 94.6591 145.732 91.7885 146.076C89.3598 146.368 87.0082 146.265 84.7072 145.388C82.6127 144.591 81.0606 142.666 81.0317 140.313C81.0219 139.514 81.0302 138.715 81.0302 137.969C79.8867 137.969 78.5942 137.962 77.3018 137.971C75.2609 137.985 73.3102 137.581 71.5243 136.589C69.3376 135.375 68.1344 133.466 68.0865 130.97C68.0587 129.524 68.3095 128.073 68.4417 126.545C66.0825 125.937 63.9455 124.706 62.2349 122.791C60.725 121.101 59.8957 119.149 59.7868 116.845C59.5828 112.531 61.4257 108.978 63.7934 105.606C64.4862 104.62 65.2715 103.698 65.9947 102.771C65.3946 102.546 64.7467 102.379 64.1751 102.071C62.9426 101.407 62.5057 99.3709 63.3377 98.0918C63.5495 97.7662 63.6053 97.203 63.49 96.8225C62.6421 94.0251 62.0575 91.2067 61.9615 88.2584C61.8486 84.7869 62.2587 81.421 63.3594 78.1423C63.5349 77.6195 63.3752 77.3605 63.0316 77.104C61.9325 76.2835 60.8221 75.478 59.721 74.6702C57.3763 78.292 55.0276 81.9116 52.689 85.5377C52.0677 86.5011 51.481 87.4869 50.8712 88.4579C50.3649 89.2643 49.5677 89.695 48.6797 89.7688C45.4184 90.04 42.7863 88.7263 41.0579 86.0402C39.8969 84.2359 39.9364 83.3538 41.5609 81.1485C44.1925 77.5761 46.7645 73.96 49.3681 70.367C50.9123 68.236 52.3973 66.0564 54.0464 64.0094C55.0497 62.764 56.479 62.1267 58.1354 61.9751C60.4579 61.7626 62.2075 62.8196 63.851 64.2589C65.4503 65.6595 67.0891 67.015 68.7468 68.421C70.6958 66.1315 72.9012 64.1466 75.5133 62.5391ZM138.644 108.247C139.226 109.912 139.637 111.607 139.663 113.386C139.674 114.193 139.866 114.842 140.818 115.164C142.828 115.844 144.79 116.667 146.774 117.425C147.351 117.645 147.973 118.094 148.512 118.013C150.78 117.676 153.029 117.204 155.272 116.721C155.872 116.592 156.59 116.568 156.84 115.745C157.799 112.578 158.453 109.346 158.487 106.042C158.508 103.976 158.306 101.888 157.983 99.8443C157.674 97.8855 157.287 95.8898 156.562 94.0573C155.502 91.3776 154.216 88.7711 152.831 86.2411C151.415 83.6565 149.591 81.327 147.505 79.2339C147.189 78.9168 146.523 78.6376 146.137 78.7494C142.215 79.8861 138.317 81.1093 134.412 82.3045C133.027 82.7284 131.639 83.142 130.295 83.5474C131.032 85.1907 131.756 86.7232 132.411 88.2845C133.523 90.9334 134.263 93.6959 134.851 96.5046C134.97 97.0724 134.941 97.539 134.346 97.6843C133.737 97.8332 133.173 97.7162 133.081 96.9067C133.038 96.527 132.973 96.1467 132.881 95.776C131.778 91.3624 130.274 87.1149 127.871 83.2125C125.573 79.4806 122.744 76.25 119.132 73.7529C117.83 72.8526 116.424 72.1011 115.059 71.2775C114.585 72.1652 114.26 72.8598 113.86 73.5091C110.706 78.6356 106.818 83.1332 102.324 87.1368C99.6659 89.5047 96.8923 91.7037 93.9223 93.661C92.9851 94.2786 92.7755 94.842 93.0185 95.9147C93.0728 96.154 93.1052 96.3983 93.161 96.6372C93.4856 98.027 94.0153 99.2648 95.279 100.114C96.9199 101.215 98.7151 101.22 100.515 100.884C104.094 100.215 107.396 98.8106 110.455 96.8365C113.136 95.1069 115.405 92.9254 117.463 90.5056C119.482 88.132 121.113 85.5207 122.293 82.6374C122.569 81.9628 123.08 81.6767 123.659 81.915C124.224 82.1479 124.303 82.7319 124.005 83.3261C123.589 84.1568 123.198 85.0012 122.829 85.8539C122.747 86.0445 122.732 86.3203 122.805 86.5115C123.037 87.1223 123.313 87.7177 123.595 88.3084C125.348 91.985 127.108 95.6584 128.865 99.3333C130.857 103.503 132.908 107.646 134.81 111.856C135.466 113.307 136.697 113.455 138.027 113.974C137.878 112.999 137.784 112.187 137.627 111.386C137.152 108.957 136.328 106.686 134.479 104.931C133.966 104.444 133.928 103.911 134.375 103.491C134.782 103.108 135.28 103.182 135.762 103.639C137.093 104.902 137.942 106.452 138.644 108.247ZM71.3744 85.9244C71.1087 86.0538 70.843 86.1831 70.5095 86.3455C70.288 85.7323 70.0975 85.2047 69.8962 84.6471C70.5515 84.3518 71.1771 84.0699 71.8684 83.7584C69.5396 82.0141 67.3252 80.3554 65.0933 78.6836C65.0044 78.895 64.9123 79.0624 64.862 79.2416C63.9087 82.6384 63.4374 86.066 63.8154 89.6168C64.0523 91.8411 64.4749 93.9995 65.2179 96.0955C65.3283 96.407 65.7532 96.836 66.0195 96.8269C68.0406 96.758 70.1005 96.8019 72.0667 96.4056C74.4829 95.9186 76.8262 95.0587 79.1886 94.3206C80.273 93.9818 80.7983 94.0291 81.0135 94.6338C81.2221 95.2197 80.8584 95.6808 79.8003 96.0122C77.4382 96.7518 75.097 97.6031 72.6863 98.1292C70.4637 98.6144 68.1796 98.991 65.8639 98.5746C65.6074 98.5284 65.203 98.7572 65.0189 98.9825C64.7346 99.3305 64.3989 99.8201 64.9408 100.212C65.3525 100.51 65.8564 100.873 66.318 100.871C67.5848 100.865 68.8499 100.668 70.1177 100.574C72.9722 100.363 75.7317 99.6926 78.4693 98.8981C82.4775 97.7348 86.2392 96.0043 89.8727 93.9775C94.6354 91.3208 98.9087 87.9914 102.81 84.2129C104.878 82.2102 106.729 79.9756 108.602 77.7811C110.834 75.1663 112.604 72.2446 114.043 69.1222C114.248 68.6768 114.28 68.3406 113.796 68.016C113.066 67.5265 112.259 67.6589 111.898 68.4669C110.301 72.0477 107.969 75.1507 105.327 77.9741C102.972 80.4909 100.368 82.7861 97.7714 85.0622C94.8204 87.6491 91.6198 89.909 88.1969 91.851C87.5932 92.1935 87.1503 92.3268 86.7444 91.7157C86.3635 91.1423 86.5706 90.7323 87.3374 90.2748C92.1264 87.4169 96.5464 84.0559 100.579 80.2178C102.529 78.3628 104.351 76.3473 106.033 74.2469C107.594 72.2992 108.893 70.1418 110.282 68.1134C98.7387 56.642 80.0905 57.5462 70.2255 69.631C73.0734 72.0159 75.9219 74.4014 78.82 76.8283C79.0616 76.0427 79.4453 75.3207 79.4698 74.5868C79.5028 73.5933 80.095 73.7694 80.6591 73.802C80.8911 73.8154 81.1158 73.9554 81.4708 74.0836C81.151 75.1858 80.9538 76.3309 80.4961 77.3603C78.6845 81.4344 75.5367 84.1492 71.3744 85.9244ZM161.476 131.401C161.903 131.489 162.327 131.594 162.757 131.663C164.739 131.982 166.71 132.012 168.697 131.622C171.072 131.156 173.092 130.035 174.941 128.527C175.929 127.722 176.006 126.463 174.97 125.911C173.925 125.354 172.769 125.054 171.553 125.172C170.455 125.279 169.357 125.385 168.26 125.505C167.385 125.601 166.514 125.783 165.638 125.807C164.461 125.84 163.313 126.002 162.115 125.5C158.048 123.797 153.925 122.229 149.821 120.617C145.514 118.925 141.185 117.287 136.902 115.535C134.462 114.537 132.013 113.739 129.336 113.87C128.868 113.893 128.528 113.904 128.519 114.523C128.503 115.719 128.397 116.914 128.372 118.11C128.326 120.369 128.951 122.502 129.733 124.585C130.045 125.416 130.389 126.326 130.989 126.933C131.658 127.611 132.618 128.013 133.48 128.485C137.994 130.958 142.855 132.12 147.977 132.229C149.141 132.254 150.321 132.215 151.473 132.055C153.666 131.75 155.844 131.333 158.029 130.97C158.509 130.89 159.012 130.728 159.473 130.801C160.108 130.902 160.713 131.19 161.476 131.401ZM64.0164 122.051C64.2758 122.254 64.5406 122.451 64.7939 122.662C67.4379 124.863 70.5108 125.6 73.8179 124.95C77.4585 124.233 81.0083 123.153 84.2657 121.288C87.4965 119.438 90.1532 117.076 91.4994 113.469C92.0995 111.862 91.8081 110.001 90.6713 109.171C88.7171 107.745 86.5304 107.324 84.2817 108.168C81.0189 109.391 77.821 110.789 74.6042 112.134C73.1726 112.732 71.7699 112.752 70.3965 112.015C69.6532 111.616 69.529 110.733 70.2033 110.367C70.5155 110.197 71.0883 110.323 71.463 110.493C72.1171 110.788 72.7147 111.064 73.3923 110.587C71.5005 108.246 69.6444 105.948 67.7664 103.624C65.5634 105.949 63.7953 108.533 62.5761 111.436C62.0143 112.774 61.6746 114.258 61.5255 115.706C61.2746 118.142 62.3091 120.191 64.0164 122.051ZM116.971 130.388C116.19 130.305 115.408 130.223 114.605 130.138C114.766 128.915 114.913 127.808 115.059 126.7C115.151 126.002 114.999 125.533 114.138 125.658C113.973 125.682 113.788 125.565 113.512 125.482C113.009 126.471 112.513 127.442 112.02 128.413C111.718 129.009 111.341 129.442 110.598 129.067C109.853 128.691 110.119 128.094 110.343 127.581C110.615 126.956 110.991 126.378 111.314 125.775C112.736 123.12 114.483 120.674 116.597 118.557C118.104 117.048 119.82 115.693 121.618 114.543C123.922 113.07 126.496 112.189 129.296 112.194C130.533 112.196 131.77 112.194 132.997 112.194C131.602 109.28 130.161 106.27 128.735 103.292C126.812 105.456 125.026 107.571 123.12 109.573C121.82 110.94 120.402 112.208 118.949 113.416C116.879 115.138 114.776 116.831 112.601 118.416C109.452 120.711 106.035 122.569 102.427 124.027C101.285 124.488 100.411 124.967 100.306 126.245C101.723 126.167 103.179 126.016 104.635 126.022C109.188 126.038 111.027 129.878 110.414 133.614C110.172 135.089 109.137 136.072 108.159 136.976C106.045 138.93 103.774 140.714 101.583 142.553C102.435 143.627 103.463 144.788 104.335 146.055C105.426 147.639 106.915 148.315 108.733 148.043C110.397 147.794 112.036 147.333 113.66 146.874C114.405 146.664 115.214 146.376 115.775 145.877C117.508 144.337 119.145 142.688 120.799 141.061C121.217 140.648 121.559 140.158 121.996 139.63C121.427 139.482 120.963 139.362 120.407 139.217C120.595 137.93 120.784 136.638 120.972 135.354C119.803 135.015 118.711 134.697 117.52 134.351C117.647 133.379 117.757 132.426 117.899 131.477C117.993 130.844 117.934 130.358 116.971 130.388ZM153.133 146.465C152.739 144.594 152.364 142.72 151.948 140.854C151.514 138.915 151.107 136.965 150.551 135.06C150.339 134.331 149.759 133.839 148.777 133.893C147.421 133.968 146.051 133.834 144.689 133.754C142.128 133.605 139.667 132.974 137.259 132.126C136.043 131.698 134.849 131.207 133.596 130.726C134.176 132.312 136.185 133.428 137.513 133.611C137.967 133.673 138.434 133.921 138.812 134.198C139.747 134.883 139.673 135.995 139.807 136.977C140.034 138.642 140.085 140.334 140.344 141.993C140.802 144.925 141.664 147.744 143.169 150.321C143.664 151.168 144.244 151.989 144.912 152.703C145.645 153.486 146.622 154.048 147.321 154.855C148.572 156.299 149.09 158.023 148.787 159.951C148.707 160.457 148.648 160.932 149.3 161.17C150.938 161.765 152.542 162.458 154.195 163.003C156.927 163.904 159.657 164.897 162.601 164.73C163.164 164.698 163.788 164.459 164.244 164.124C164.939 163.614 164.725 162.837 163.901 162.556C162.613 162.115 161.329 161.66 160.038 161.225C158.727 160.783 157.804 159.847 157.269 158.657C156.512 156.972 155.916 155.21 155.324 153.456C154.559 151.186 153.866 148.891 153.133 146.465ZM99.2254 123.567C99.3397 122.978 99.4205 122.379 99.5746 121.801C100.038 120.06 98.1751 118.162 96.9777 118.115C95.7324 118.065 94.4282 118.007 93.2432 118.313C91.8188 118.682 90.2693 119.161 89.1698 120.071C86.6388 122.165 83.882 123.747 80.8126 124.84C77.4664 126.031 74.096 127.102 70.4797 126.838C70.0619 128.291 69.6712 129.65 69.8857 131.15C70.1391 132.922 70.9397 134.294 72.5226 135.051C75.6826 136.561 78.9848 136.682 82.3001 135.619C86.5083 134.27 90.381 132.212 94.1108 129.865C96.4922 128.366 98.5518 126.619 99.2254 123.567ZM111.099 101.751C112.791 100.228 114.513 98.7376 116.161 97.1685C116.999 96.3703 117.744 95.4632 118.455 94.5459C119.562 93.1176 120.575 91.6164 121.684 90.1899C122.298 89.3999 121.914 88.8593 121.452 88.2485C119.568 90.9223 117.609 93.4255 115.156 95.5443C112.684 97.6806 110.007 99.4416 107.013 100.731C104.065 102.001 101.047 102.963 97.7725 102.761C94.9737 102.589 92.7272 101.239 91.8243 98.4246C91.5065 97.4342 91.3599 96.389 91.1383 95.3836C84.3613 99.2379 77.1537 101.82 69.2233 102.49C71.1193 104.846 72.9722 107.126 74.7945 109.43C75.1271 109.851 75.4825 109.811 75.8604 109.65C77.4911 108.957 79.1012 108.215 80.7387 107.539C82.9611 106.621 85.1527 105.642 87.6965 106.102C89.2091 106.377 90.6329 106.765 91.8205 107.752C93.0685 108.788 93.6122 110.195 93.7057 111.861C94.9782 111.299 96.2108 110.782 97.4206 110.216C102.273 107.945 106.797 105.141 111.099 101.751ZM101.587 140.072C103.737 138.718 105.545 136.965 107.333 135.182C108.458 134.06 109.077 132.869 108.682 131.203C108.32 129.677 107.054 127.988 105.614 127.911C103.875 127.818 102.112 127.97 100.376 128.166C99.6639 128.247 98.8904 128.586 98.3258 129.035C96.283 130.661 94.1826 132.184 91.8261 133.322C89.2956 134.545 86.7893 135.829 84.1975 136.907C83.2932 137.282 82.9827 137.778 82.8817 138.609C82.8587 138.798 82.8277 138.988 82.7811 139.173C82.4654 140.424 83.1962 142.311 84.2705 143.03C86.9452 144.819 89.8865 144.67 92.8303 144.095C96.0138 143.473 98.8265 141.952 101.587 140.072ZM64.3629 75.9001C65.1193 76.6942 65.7894 76.3895 66.5369 75.8206C67.9942 74.7115 68.8343 73.1911 69.6024 71.5044C68.1667 70.3116 66.7181 69.108 65.201 67.8475C64.2423 70.0283 63.0387 71.9418 61.0717 73.3626C62.1849 74.2133 63.2303 75.0122 64.3629 75.9001ZM45.9069 78.3324C45.2787 79.2146 44.6505 80.0969 44.0075 80.9998C46.9571 81.266 49.1009 82.7915 50.8097 85.1222C51.4805 84.07 52.1051 83.1111 52.7 82.134C52.7859 81.9929 52.7826 81.749 52.731 81.5799C52.0065 79.2021 50.2348 78.07 47.9487 77.4697C47.0246 77.227 46.3983 77.3567 45.9069 78.3324ZM53.2251 68.2852C52.5549 69.185 51.8848 70.0849 51.1765 71.0359C53.8162 71.5634 55.7002 73.0422 57.128 75.2792C57.6599 74.464 58.115 73.7857 58.544 73.0913C58.6227 72.964 58.6368 72.7645 58.611 72.6099C58.2755 70.5951 57.3365 68.9596 55.6039 67.8119C54.2464 66.9126 54.2247 66.905 53.2251 68.2852ZM125.423 119.604C124.123 120.46 122.818 121.308 121.527 122.178C121.223 122.382 120.997 122.61 121.254 123.076C121.843 124.145 122.357 125.255 122.906 126.358C123.121 126.261 123.221 126.232 123.305 126.176C124.576 125.328 125.851 124.485 127.105 123.612C127.244 123.515 127.344 123.225 127.314 123.05C127.184 122.271 126.996 121.503 126.837 120.729C126.726 120.187 126.63 119.642 126.515 119.035C126.101 119.233 125.807 119.374 125.423 119.604ZM72.0958 81.6134C72.6067 82.0038 73.1176 82.3942 73.731 82.8629C75.1978 81.4025 76.5899 80.0165 78.0277 78.5849C77.0158 77.7143 76.1936 76.9848 75.3362 76.2995C75.2384 76.2213 74.8641 76.3238 74.7516 76.4562C74.0416 77.2906 73.4148 78.1995 72.6697 78.9993C72.1133 79.5965 71.4204 80.0665 70.7295 80.642C71.1619 80.9501 71.578 81.2466 72.0958 81.6134ZM171.841 169.571C171.549 169.519 171.122 169.317 170.986 169.439C170.027 170.301 168.806 170.362 167.67 170.45C164.983 170.658 162.331 170.401 159.848 169.204C159.298 168.939 158.796 169.028 158.561 169.594C158.337 170.133 158.792 170.4 159.212 170.576C162.79 172.078 166.462 172.477 170.249 171.491C171.197 171.244 172.013 170.371 171.841 169.571ZM119.943 118.308C120.054 119.112 120.165 119.915 120.278 120.733C120.398 120.692 120.456 120.684 120.501 120.656C122.432 119.471 124.362 118.286 126.289 117.096C126.373 117.044 126.499 116.96 126.5 116.888C126.515 116.059 126.509 115.23 126.509 114.387C124.291 114.947 122.353 116.101 120.519 117.45C120.276 117.628 120.126 117.932 119.943 118.308ZM182.166 131.727C183.252 131.115 184.353 130.527 185.417 129.877C185.75 129.674 186.056 129.344 186.229 128.999C186.32 128.815 186.143 128.275 186.011 128.246C185.67 128.172 185.214 128.179 184.934 128.357C184.234 128.804 183.674 129.513 182.936 129.849C180.764 130.839 178.446 131.267 176.055 131.222C175.46 131.211 175.1 131.577 175.138 132.017C175.161 132.284 175.715 132.681 176.057 132.71C176.792 132.773 177.555 132.696 178.286 132.565C179.543 132.338 180.784 132.025 182.166 131.727ZM126.436 130.392C126.794 130.683 127.152 130.975 127.626 131.36C128.094 130.067 128.532 128.88 128.948 127.686C128.991 127.565 128.935 127.388 128.879 127.257C128.592 126.581 128.289 125.912 127.943 125.129C126.649 126.046 125.381 126.945 124.087 127.862C124.916 128.758 125.633 129.533 126.436 130.392ZM187.149 127.115C187.458 126.783 187.985 126.471 187.496 125.96C187.31 125.766 186.895 125.675 186.617 125.725C186.435 125.757 186.139 126.24 186.193 126.321C186.41 126.649 186.745 126.899 187.149 127.115ZM173.852 168.072C173.75 167.577 173.415 167.313 172.967 167.5C172.744 167.594 172.524 168.017 172.543 168.273C172.561 168.515 172.894 168.734 173.088 168.963C173.343 168.711 173.598 168.46 173.852 168.072Z" fill="white"/>
<path d="M59.3423 40.1965C60.7904 42.4166 62.1997 44.6642 63.7257 46.8295C63.9752 47.1835 64.7316 47.2609 65.2682 47.311C65.8898 47.369 66.4818 47.6152 66.4834 48.1664C66.4853 48.7618 66.2597 49.6242 65.8279 49.9122C62.6939 52.0023 59.4898 53.9881 56.2857 55.9712C55.9388 56.1859 55.4506 56.248 55.0277 56.2486C54.1664 56.25 53.636 55.5815 53.9922 54.8035C54.4958 53.7035 54.147 52.945 53.5064 52.0268C51.0513 48.508 48.7101 44.9099 46.2977 41.3609C44.2221 38.3072 42.1075 35.28 40.0091 32.2397C39.8929 32.282 39.7728 32.3495 39.6456 32.3679C39.0679 32.4513 38.228 32.7868 37.9694 32.5338C37.5713 32.1445 37.3919 31.3348 37.4363 30.7265C37.5756 28.8161 38.2136 27.0286 39.4512 25.5524C40.7408 24.014 42.1971 22.5327 44.3935 22.6212C45.4116 22.6622 46.4366 23.1596 47.4101 23.5662C50.9553 25.0468 54.4797 26.5771 58.0139 28.0843C58.1105 28.1255 58.2281 28.1174 58.3551 28.1349C58.3551 26.9792 58.3594 25.8542 58.3521 24.7293C58.3503 24.4532 58.2915 24.1774 58.291 23.9013C58.286 21.3753 58.3171 18.8488 58.2814 16.3233C58.2256 12.3848 59.3972 11.5832 63.0067 10.3277C65.0229 9.62655 67.1682 9.72643 69.2236 10.5902C70.6786 11.2016 70.8807 11.9149 69.7795 13.0154C69.6609 13.1339 69.5193 13.2296 69.348 13.3687C74.1774 20.4982 78.9703 27.5736 83.6988 34.5541C84.3591 34.6233 84.9536 34.62 85.5116 34.761C86.1964 34.934 86.4597 35.5134 86.1937 36.1177C85.9589 36.651 85.5813 37.2166 85.1095 37.5347C82.4601 39.3209 79.7684 41.0447 77.0789 42.7706C76.3732 43.2234 75.7096 43.7944 74.7484 43.6417C74.1138 43.5409 73.3652 42.781 73.6563 42.2674C74.4833 40.8081 73.5993 39.8137 72.8693 38.7667C71.6645 37.0385 70.4301 35.3309 69.1349 33.5118C69.1077 33.7846 69.08 33.975 69.0709 34.1663C68.9565 36.5836 68.8567 39.0017 68.7259 41.4182C68.6786 42.2903 68.0857 42.6356 67.202 42.3589C64.8123 41.6107 62.4242 40.8574 60.0334 40.1131C59.9043 40.0729 59.7553 40.0966 59.5291 40.0382C59.3658 39.9757 59.289 39.9655 59.2122 39.9554C59.2556 40.0358 59.2989 40.1161 59.3423 40.1965Z" fill="white"/>
<path d="M63.6775 169.797C63.27 171.057 62.3101 171.613 60.8221 171.104C59.4536 170.635 58.7484 171.206 58.0313 172.163C56.7637 173.855 55.4563 175.517 54.1916 177.211C54.0726 177.37 54.034 177.804 54.1341 177.881C56.0714 179.367 58.0243 180.833 59.9981 182.271C60.8736 182.908 61.3555 182.832 61.9983 182.008C63.1302 180.557 64.2357 179.085 65.3515 177.622C65.4838 177.448 65.5908 177.25 65.7448 177.099C66.2749 176.58 66.3264 176.028 65.9754 175.378C65.7306 174.925 65.5516 174.434 65.3686 173.951C65.1128 173.275 65.0189 172.589 65.6003 172.029C66.1704 171.481 66.9226 171.507 67.5494 171.779C68.3366 172.121 69.0707 172.618 69.7666 173.132C73.2979 175.736 76.8091 178.368 80.3283 180.99C81.0506 181.528 81.3384 182.283 81.3604 183.143C81.3803 183.919 80.8053 184.408 79.7913 184.452C79.3298 184.472 78.8433 184.43 78.4019 184.3C77.1737 183.941 76.4337 184.522 75.7364 185.445C73.1719 188.842 70.5721 192.213 67.9705 195.581C65.9882 198.148 64.0063 200.716 61.9702 203.24C61.5169 203.802 61.4748 204.256 61.7411 204.868C61.8898 205.209 61.9805 205.605 61.9819 205.976C61.986 207.139 61.0429 207.741 60.0055 207.204C58.3317 206.338 56.658 205.462 55.045 204.49C52.6814 203.065 50.3936 201.515 48.0282 200.093C47.0193 199.486 47.3381 198.592 47.3721 197.799C47.4067 196.993 48.2166 196.167 48.9655 196.297C50.9086 196.635 51.823 195.444 52.7741 194.123C53.8487 192.63 55.0034 191.195 56.1285 189.738C56.7661 188.913 56.7751 188.433 55.9371 187.777C54.1446 186.373 52.3083 185.025 50.4767 183.672C49.9412 183.276 49.4098 183.425 49.0093 183.898C48.2798 184.76 47.578 185.646 46.8848 186.537C45.992 187.685 45.1423 188.867 44.2276 189.997C43.7907 190.537 43.7207 191.019 43.9977 191.661C44.3792 192.544 44.4962 193.494 43.8051 194.287C43.1799 195.004 42.3851 195.478 41.3657 195.238C41.1162 195.18 40.8491 195.052 40.6662 194.876C38.708 192.997 36.778 191.089 34.8134 189.217C33.5051 187.97 32.1787 186.74 30.8103 185.56C30.1484 184.989 30.2297 184.31 30.4093 183.661C30.5672 183.09 31.7247 182.562 32.3192 182.81C33.2435 183.195 33.707 182.608 34.1286 182.059C36.9727 178.36 39.7867 174.638 42.6028 170.918C44.4736 168.447 46.3122 165.951 48.2119 163.502C48.5952 163.008 48.5461 162.623 48.3214 162.144C48.0897 161.65 47.7702 161.163 47.688 160.642C47.5966 160.063 47.5408 159.34 47.8083 158.873C48.2391 158.123 49.1615 158.172 49.8394 158.459C50.6769 158.814 51.4405 159.375 52.1798 159.923C54.7813 161.852 57.355 163.817 59.9472 165.758C60.8676 166.448 61.895 167.02 62.7117 167.812C63.1967 168.283 63.3661 169.079 63.6775 169.797Z" fill="white"/>
<path d="M154.472 206.028C155.01 206.097 155.5 206.089 155.922 206.255C156.533 206.494 156.958 206.934 157.018 207.672C157.08 208.428 156.843 208.977 156.121 209.229C154.633 209.748 153.145 210.273 151.636 210.724C150.253 211.137 148.84 211.448 147.444 211.818C146.613 212.039 145.951 211.956 145.28 211.265C142.583 208.484 139.819 205.769 137.078 203.031C136.884 202.837 136.679 202.655 136.447 202.437C135.95 202.902 135.798 203.317 136.005 204.007C136.631 206.094 137.139 208.215 137.674 210.252C138.308 210.515 138.911 210.754 139.505 211.013C140.342 211.377 140.599 212.063 140.493 212.915C140.4 213.659 139.919 214.086 139.232 214.278C136.189 215.128 133.146 215.978 130.096 216.802C128.885 217.13 127.642 217.343 126.44 217.696C125.62 217.937 124.968 217.787 124.438 217.16C124.002 216.645 124.045 215.537 124.471 214.902C124.532 214.811 124.579 214.699 124.662 214.637C125.864 213.735 125.369 212.644 125.059 211.533C123.785 206.967 122.548 202.391 121.286 197.822C120.568 195.223 119.824 192.631 119.099 190.033C118.944 189.476 118.674 189.179 118.025 189.155C117.47 189.134 116.914 188.909 116.376 188.725C115.723 188.502 115.088 188.109 115.093 187.378C115.098 186.561 115.506 185.78 116.342 185.518C118.003 184.998 119.699 184.587 121.38 184.129C124.535 183.271 127.692 182.424 130.841 181.544C131.725 181.297 132.451 181.514 133.135 182.066C133.784 182.59 133.771 183.272 133.373 183.843C132.908 184.511 132.29 185.085 131.684 185.639C131.339 185.954 131.211 186.159 131.369 186.676C131.946 188.567 132.418 190.491 133.092 192.436C134.729 189.783 135.857 186.915 137.252 184.212C136.992 184.129 136.763 184.036 136.526 183.981C135.628 183.774 134.872 183.278 134.811 182.355C134.748 181.393 135.34 180.57 136.249 180.23C137.774 179.659 139.344 179.203 140.91 178.747C142.584 178.259 144.292 177.883 145.951 177.351C146.946 177.032 148.331 177.7 148.741 178.671C149.146 179.631 148.918 180.598 147.874 181.183C147.02 181.662 146.6 182.36 146.218 183.208C145.142 185.601 143.977 187.954 142.864 190.331C142.215 191.715 141.576 193.104 140.991 194.515C140.888 194.766 140.96 195.254 141.144 195.435C144.239 198.467 147.363 201.47 150.487 204.472C150.886 204.855 151.37 205.158 151.728 205.572C152.249 206.173 152.804 206.379 153.564 206.077C153.809 205.98 154.116 206.04 154.472 206.028Z" fill="white"/>
<path d="M162.541 15.4366C163.533 14.984 164.44 14.9924 165.297 15.6208C169.475 18.6826 173.655 21.7413 177.832 24.8038C180.397 26.6841 182.987 28.5317 185.511 30.4656C187.219 31.7748 187.25 35.0305 185.17 36.5804C183.359 37.9295 181.307 38.6719 179.004 38.7642C176.773 38.8536 175.387 37.7946 176.384 35.3508C174.723 34.1208 173.059 32.8796 171.376 31.6648C171.26 31.5817 170.901 31.6248 170.826 31.7303C170.055 32.8209 169.318 33.9364 168.558 35.0647C170.727 36.648 172.786 38.2434 174.947 39.6873C175.903 40.3264 175.744 41.1571 175.683 41.9664C175.562 43.579 174.195 45.1057 172.616 45.4026C172.22 45.4771 171.681 45.2859 171.333 45.0395C169.208 43.5348 167.119 41.979 164.979 40.4115C163.309 42.9386 161.647 45.4419 160.007 47.9597C159.893 48.1338 159.894 48.4249 159.931 48.6464C160.057 49.3935 160.32 50.1295 160.353 50.8775C160.399 51.9377 159.357 52.6672 158.386 52.2028C157.338 51.702 156.357 51.0366 155.41 50.355C152.719 48.4174 150.042 46.4572 147.402 44.4504C146.91 44.0756 146.395 43.4904 146.27 42.9194C146.005 41.7002 146.64 41.0821 148 40.7872C148.499 40.6788 149.042 40.7697 149.636 40.7697C153.55 34.8084 157.526 28.7549 161.498 22.6989C161.992 21.9453 162.433 21.1544 162.962 20.4267C163.332 19.9167 163.251 19.5332 162.984 18.9975C162.59 18.208 162.3 17.3509 162.094 16.4919C162.025 16.2062 162.349 15.8261 162.541 15.4366Z" fill="white"/>
<path d="M188.805 147.36C190.736 145.523 192.941 144.475 195.562 144.183C199.757 143.715 203.136 145.224 205.814 148.329C207.181 149.914 207.948 151.834 208.242 153.964C208.67 157.066 207.932 159.833 206.197 162.379C204.835 164.379 202.899 165.626 200.658 166.543C200.818 166.647 201.036 166.713 201.116 166.856C201.428 167.413 201.905 167.985 201.931 168.569C201.966 169.348 201.34 169.863 200.582 170.148C198.611 170.888 196.742 170.377 194.89 169.705C193.689 169.269 192.602 168.654 191.886 167.538C190.908 166.016 190.719 164.061 193.011 163.424C193.457 163.3 193.916 163.214 194.352 163.063C196.589 162.286 198.83 161.48 200.431 159.618C200.951 159.014 201.464 158.259 201.607 157.503C202.016 155.349 200.196 154.464 198.423 154.912C197.104 155.245 196.225 156.08 195.577 157.221C193.727 160.476 190.913 162.459 187.261 163.031C183.37 163.642 179.887 162.534 177.13 159.66C175.265 157.716 174.19 155.377 173.994 152.609C173.787 149.688 174.499 147.084 176.213 144.755C177.533 142.963 179.238 141.624 181.34 140.844C181.86 140.651 182.23 140.511 181.95 139.831C181.611 139.005 181.652 138.173 182.42 137.593C183.293 136.934 184.267 136.947 185.216 137.447C187.584 138.695 189.22 140.579 190.055 143.133C190.537 144.607 190.266 144.958 188.812 145.411C186.422 146.155 184.212 147.238 182.735 149.395C182.074 150.361 182.128 151.809 182.822 152.729C183.163 153.181 183.973 153.258 184.567 152.927C185.599 152.352 185.883 151.223 186.517 150.353C187.244 149.354 188.012 148.385 188.805 147.36Z" fill="white"/>
<path d="M17.5244 147.661C18.8038 148.078 19.3825 149.13 18.9904 150.506C18.3712 152.679 18.0839 154.885 18.2025 157.136C18.275 158.511 18.7254 159.786 19.7072 160.775C21.2631 162.341 22.7881 161.482 23.5504 159.906C24.2085 158.545 23.919 157.237 23.1516 155.939C22.0285 154.04 21.5065 151.981 21.5297 149.727C21.5562 147.144 22.2998 144.891 23.8347 142.841C25.4539 140.678 27.592 139.284 30.1764 138.669C34.4748 137.645 38.2692 138.754 41.3569 141.884C43.3854 143.941 44.4493 146.507 44.4723 149.445C44.4803 150.467 44.4736 151.49 44.4736 152.592C44.7204 152.643 45.1231 152.699 45.5094 152.811C46.7372 153.168 47.1395 155.054 46.181 156.043C44.9465 157.318 43.3493 157.949 41.6526 158.145C40.3993 158.289 39.0912 158.167 37.8314 157.992C36.4838 157.805 36.2445 157.294 36.6176 156.028C37.2902 153.746 37.3511 151.468 36.5592 149.195C36.1678 148.072 35.0128 147.098 33.9969 147.066C32.6043 147.021 31.8928 148.106 32.511 149.392C33.0443 150.5 33.6847 151.559 34.1968 152.676C36.2394 157.135 35.778 161.313 32.6949 165.159C30.8202 167.497 28.3644 168.762 25.3985 169.144C20.8041 169.736 17.1879 168.023 14.4603 164.426C13.2665 162.851 12.5185 160.997 12.4702 158.954C12.4449 157.887 12.4657 156.819 12.4657 155.672C12.1672 155.748 11.9178 155.801 11.6753 155.876C10.3905 156.273 9.48759 155.602 9.42205 154.288C9.3479 152.8 9.96301 151.567 10.9327 150.588C12.1186 149.39 13.292 148.059 15.082 147.738C15.8612 147.598 16.6744 147.648 17.5244 147.661Z" fill="white"/>
<path d="M128.199 37.566C125.112 36.7229 122.098 35.8693 119.077 35.0456C118.117 34.7837 117.479 34.2249 117.418 33.4636C117.335 32.4235 117.781 31.5934 118.866 31.3683C120.041 31.1247 120.381 30.4251 120.636 29.3914C121.972 23.9664 123.365 18.5554 124.746 13.1418C125.312 10.9246 125.915 8.71669 126.455 6.49326C126.509 6.27171 126.292 5.92193 126.107 5.71722C125.638 5.19985 125.063 4.77361 124.629 4.23177C124.149 3.63267 123.904 2.89475 124.301 2.15937C124.643 1.52685 125.933 1.15951 126.779 1.39302C129.744 2.21163 132.703 3.05237 135.669 3.86856C137.559 4.38864 139.463 4.85952 141.349 5.39245C142.444 5.70174 143.076 6.74111 142.836 7.81017C142.776 8.07411 142.547 8.392 142.31 8.50606C141.676 8.81062 141.011 9.15893 140.331 9.22802C139.485 9.31402 139.04 9.56366 138.799 10.439C137.375 15.6105 135.895 20.7665 134.423 25.9247C133.923 27.6774 133.392 29.4214 132.851 31.252C134.732 31.7696 136.559 32.2722 138.402 32.7792C138.316 32.1173 138.175 31.4382 138.151 30.7551C138.119 29.8148 138.632 29.3327 139.565 29.3114C141.64 29.264 143.531 30.8209 144.037 32.9444C144.543 35.0653 143.885 36.9472 142.907 38.7703C142.727 39.106 142.524 39.438 142.282 39.7304C141.382 40.8173 140.204 40.7272 139.015 40.4193C135.533 39.5179 132.058 38.5927 128.58 37.6754C128.475 37.6477 128.374 37.6036 128.199 37.566Z" fill="white"/>
<path d="M199.439 138.031C198.716 137.247 198.835 136.46 199.046 135.548C199.697 132.728 200.336 129.897 200.776 127.04C201.199 124.289 201.373 121.501 201.646 118.728C201.722 117.956 201.774 117.181 201.814 116.407C201.88 115.1 201.98 113.793 201.973 112.486C201.962 110.477 201.93 108.465 201.802 106.46C201.636 103.868 201.463 101.268 201.122 98.695C200.335 92.7556 199.225 86.8788 197.491 81.1283C196.247 77.0008 194.829 72.9436 193.049 69.0153C190.867 64.1991 188.345 59.5732 185.349 55.2117C184.706 54.2767 184.848 53.0414 185.653 52.4682C186.429 51.9157 187.669 52.1761 188.272 53.1069C189.505 55.0079 190.749 56.9057 191.871 58.872C193.173 61.1527 194.465 63.4523 195.548 65.8406C196.907 68.8391 198.169 71.894 199.252 75.0016C200.389 78.2624 201.38 81.5852 202.218 84.935C202.968 87.9273 203.507 90.9802 203.983 94.0306C204.433 96.9123 204.74 99.8203 204.999 102.726C205.204 105.023 205.24 107.335 205.355 109.64C205.405 110.639 205.536 111.639 205.509 112.635C205.436 115.334 205.382 118.039 205.167 120.729C204.735 126.149 203.855 131.504 202.477 136.768C202.086 138.263 201.183 138.667 199.439 138.031Z" fill="white"/>
<path d="M13.5231 104.012C13.6441 103.006 13.7047 102.067 13.8183 101.135C14.1245 98.6237 14.394 96.1056 14.7898 93.6078C15.1791 91.1515 15.6378 88.7017 16.1851 86.2759C17.525 80.3378 19.3578 74.5513 21.7757 68.9594C24.1796 63.3999 27.0114 58.0731 30.4835 53.0982C31.0726 52.2542 32.2726 51.9208 32.9998 52.4665C33.8953 53.1386 34.1632 54.0861 33.4916 55.0555C30.9188 58.7692 28.6242 62.6559 26.6969 66.7406C24.2165 71.9976 22.2049 77.4306 20.6906 83.0553C19.6372 86.968 18.7508 90.9057 18.1971 94.9167C17.8848 97.1787 17.5979 99.4452 17.3617 101.716C17.1925 103.342 17.072 104.977 17.0257 106.61C16.9315 109.937 16.8037 113.268 16.8788 116.593C16.9335 119.018 17.2419 121.442 17.5274 123.855C17.8013 126.171 18.1281 128.484 18.5504 130.777C18.8858 132.597 19.3988 134.386 19.8362 136.187C20.0548 137.088 19.5056 138.11 18.6956 138.298C17.5737 138.559 16.5642 138.023 16.3449 137.019C15.6639 133.899 14.9076 130.791 14.3556 127.648C13.9701 125.453 13.7661 123.212 13.6677 120.983C13.478 116.688 13.3986 112.387 13.3213 108.088C13.2973 106.755 13.4274 105.418 13.5231 104.012Z" fill="white"/>
<path d="M40.0888 96.5032C38.5725 100.774 37.0988 104.988 35.5349 109.168C34.7516 111.261 33.1352 112.407 30.913 112.703C28.8734 112.973 27.1577 112.401 25.7223 110.894C24.1193 109.21 23.6621 106.545 24.5965 104.394C25.2574 102.873 26.5367 101.896 27.6779 100.816C28.9177 99.6438 30.261 98.5737 31.6123 97.5275C33.8595 95.7878 36.1245 94.0598 38.8593 93.1185C39.7991 92.795 40.443 93.2001 40.4128 94.1572C40.3887 94.9181 40.2063 95.674 40.0888 96.5032ZM26.8507 107.964C27.206 108.6 27.5153 109.268 27.9382 109.855C28.1168 110.103 28.5318 110.285 28.8447 110.293C29.0459 110.299 29.4389 109.918 29.4242 109.736C29.3964 109.394 29.1324 109.072 28.9733 108.739C28.7461 108.263 28.4901 107.797 28.3085 107.304C27.9328 106.284 28.3696 105.384 28.8428 104.528C29.1152 104.034 28.9397 103.728 28.5675 103.469C28.1205 103.158 27.7438 103.437 27.5508 103.787C26.8572 105.044 26.3096 106.35 26.8507 107.964ZM30.5793 110.177C30.9745 110.807 31.5396 110.902 31.8198 110.357C31.9233 110.155 31.9488 109.817 31.8464 109.632C31.731 109.424 31.2901 109.149 31.2353 109.195C30.9486 109.435 30.7395 109.768 30.5793 110.177Z" fill="white"/>
<path d="M38.93 124.832C36.026 123.411 34.8648 120.415 35.9371 117.136C37.0888 113.616 38.2183 110.079 39.9495 106.789C40.6205 105.514 41.4603 104.314 42.3348 103.164C42.905 102.415 43.9278 102.556 44.2776 103.441C44.7752 104.699 45.1752 106.01 45.4656 107.332C45.9754 109.654 46.4047 111.995 46.8023 114.338C47.0915 116.043 47.4316 117.763 47.4712 119.482C47.5375 122.36 45.8061 124.49 43.0503 125.259C41.7126 125.632 40.2821 125.6 38.93 124.832ZM42.2837 122.384C42.2873 121.799 41.946 121.654 41.4209 121.619C40.0156 121.525 39.2339 120.677 39.2601 119.271C39.2729 118.585 39.2989 117.883 39.461 117.222C39.5845 116.719 39.4895 116.385 39.0475 116.261C38.5751 116.129 38.1464 116.298 38.073 116.876C37.949 117.853 37.7025 118.842 37.7682 119.809C37.8933 121.649 39.7215 123.204 41.5356 123.117C41.7936 123.105 42.0342 122.73 42.2837 122.384ZM43.4521 122.061C43.7404 122.164 44.0903 122.418 44.3005 122.332C44.5316 122.237 44.8118 121.773 44.7481 121.572C44.6663 121.313 44.27 120.999 43.9974 120.987C43.3799 120.961 43.293 121.443 43.4521 122.061Z" fill="white"/>
<path d="M89.8301 63.6779C92.8736 63.6343 95.8087 63.8578 98.6159 64.8747C99.7096 65.271 100.746 65.8409 101.776 66.3911C102.326 66.6843 102.713 67.1625 102.259 67.8151C101.84 68.4184 101.389 68.2867 100.799 67.9196C98.7319 66.6312 96.4605 65.9369 94.0275 65.6854C90.7228 65.3439 87.4732 65.5136 84.2479 66.3393C83.7452 66.468 82.9538 66.6424 82.7661 65.86C82.6868 65.5298 82.9792 64.9205 83.2841 64.7333C83.7218 64.4644 84.321 64.436 84.8589 64.3568C86.4872 64.1171 88.1191 63.9024 89.8301 63.6779Z" fill="white"/>
<path d="M104.768 69.7422C103.891 69.7848 103.571 69.2404 103.453 68.5907C103.351 68.0299 103.935 67.4295 104.504 67.3841C105.331 67.3182 105.934 67.7122 105.939 68.456C105.943 69.1318 105.61 69.6617 104.768 69.7422Z" fill="white"/>
</g>
</g>
<defs>
<clipPath id="clip0_26_57">
<rect width="219" height="219" fill="white"/>
</clipPath>
</defs>
</svg>
